<svg width="60" height="40" viewBox="0 0 60 40" fill="none" xmlns="http://www.w3.org/2000/svg">
<path d="M7.555 12.5L5 18.444H6.662L7.134 17.253H9.876L10.346 18.443H12.046L9.493 12.5H7.555ZM8.502 13.884L9.338 15.964H7.663L8.503 13.884H8.502ZM12.616 18.444V12.5L14.981 12.51L16.355 16.341L17.698 12.5H20.044V18.444H18.56V14.064L16.987 18.444H15.685L14.105 14.064V18.444H12.616ZM21.428 18.444V12.5H26.276V13.83H22.93V14.846H26.198V16.097H22.93V17.152H26.277V18.44H21.429V18.444H21.428ZM27.502 12.5V18.444H28.987V16.332H29.614L31.397 18.444H33.211L31.258 16.256C31.7086 16.211 32.126 15.9987 32.4278 15.661C32.7295 15.3234 32.8937 14.8848 32.888 14.432C32.888 13.181 31.907 12.503 30.811 12.503H27.502V12.5ZM28.987 13.83H30.684C31.093 13.83 31.387 14.15 31.387 14.457C31.387 14.853 31.004 15.084 30.707 15.084H28.987V13.83ZM35.422 18.444H33.905V12.5H35.422V18.444ZM39.687 18.444H38.99C37.407 18.444 36.445 17.196 36.445 15.496C36.445 13.754 37.395 12.5 39.395 12.5H41.039V13.906H39.339C38.529 13.906 37.952 14.539 37.952 15.508C37.952 16.658 38.607 17.142 39.554 17.142H40.314L39.687 18.444ZM43.22 12.5L40.665 18.444H42.327L42.799 17.253H45.541L46.01 18.443H47.71L45.158 12.5H43.22ZM44.164 13.884L45 15.964H43.325L44.164 13.884ZM48.16 18.444V12.5H50.048L52.461 16.233V12.5H53.946V18.444H52.119L49.645 14.612V18.444H48.16ZM12.616 26.116V20.173H17.464V21.503H14.117V22.519H17.385V23.77H14.117V24.825H17.464V26.113H12.616V26.116ZM38.062 26.116V20.173H42.91V21.503H39.563V22.519H42.815V23.77H39.563V24.825H42.91V26.113H38.062V26.116ZM17.805 26.116L20.49 23.096L17.805 20.173H19.775L21.459 22.032L23.049 20.172H24.993L22.337 23.089L24.993 26.113H23.122L21.459 24.21L19.651 26.113H17.805V26.116ZM25.332 20.175V26.119H26.855V24.24H28.419C29.743 24.24 30.747 23.537 30.747 22.172C30.747 21.042 29.962 20.174 28.613 20.174L25.332 20.175ZM26.858 21.518H28.505C28.932 21.518 29.236 21.78 29.236 22.202C29.236 22.597 28.932 22.886 28.499 22.886H26.855V21.518H26.858ZM31.64 20.175V26.119H33.126V24.007H33.753L35.535 26.119H37.35L35.396 23.931C35.8468 23.8862 36.2644 23.674 36.5664 23.3363C36.8684 22.9986 37.0327 22.56 37.027 22.107C37.027 20.856 36.045 20.178 34.95 20.178H31.64V20.175ZM33.129 21.502H34.826C35.235 21.502 35.529 21.822 35.529 22.129C35.529 22.525 35.146 22.756 34.849 22.756H33.129V21.502ZM44.003 26.116V24.826H46.976C47.416 24.826 47.606 24.589 47.606 24.33C47.606 24.08 47.416 23.826 46.976 23.826H45.633C44.465 23.826 43.816 23.114 43.816 22.046C43.816 21.093 44.411 20.176 46.146 20.176H49.041L48.414 21.512H45.912C45.434 21.512 45.285 21.762 45.285 22.002C45.285 22.249 45.465 22.522 45.833 22.522H47.239C48.54 22.522 49.107 23.259 49.107 24.228C49.107 25.267 48.477 26.118 47.169 26.118H44.003V26.116ZM49.895 26.116V24.826H52.869C53.309 24.826 53.499 24.589 53.499 24.33C53.499 24.08 53.309 23.826 52.869 23.826H51.526C50.358 23.826 49.708 23.114 49.708 22.046C49.708 21.093 50.304 20.176 52.039 20.176H54.933L54.306 21.512H51.805C51.327 21.512 51.178 21.762 51.178 22.002C51.178 22.249 51.358 22.522 51.726 22.522H53.132C54.433 22.522 55 23.259 55 24.228C55 25.267 54.37 26.118 53.062 26.118H49.895V26.116Z" fill="#2B70D1"/>
<rect x="0.3" y="0.3" width="59.4" height="39.4" rx="5.7" stroke="#418985" stroke-opacity="0.2" stroke-width="0.6"/>
</svg>
