<svg width="40" height="40" viewBox="0 0 40 40" fill="none" xmlns="http://www.w3.org/2000/svg">
<path d="M22.0132 10.0227C22.0132 5.62672 25.5912 2.05086 29.9839 2.05086C34.3804 2.05086 37.9584 5.62672 37.9584 10.0227C37.9584 14.418 34.3804 17.9947 29.9839 17.9947C25.5912 17.9947 22.0132 14.418 22.0132 10.0227ZM5.48809 18.8728H14.5745C16.9489 18.8728 18.8792 16.9408 18.8792 14.5657V5.47906C18.8792 3.10398 16.9489 1.17188 14.5745 1.17188H5.48809C3.11371 1.17195 1.17973 3.10398 1.17973 5.47906V14.5657C1.17973 16.9408 3.11371 18.8728 5.48809 18.8728ZM12.7029 23.4345C12.145 22.468 11.1468 21.8915 10.0313 21.8915C8.91574 21.8915 7.91379 22.468 7.35598 23.4345L1.5834 33.4345C1.02559 34.4009 1.02559 35.5548 1.5834 36.5212C2.14121 37.4877 3.13941 38.0651 4.25504 38.0651H15.8039C16.9195 38.0651 17.9177 37.4877 18.4754 36.5212C19.0332 35.5548 19.0332 34.4009 18.4754 33.4345L12.7029 23.4345ZM34.5308 21.1275H25.4407C23.0664 21.1275 21.1361 23.0596 21.1361 25.4345V34.5213C21.1361 36.8963 23.0664 38.8282 25.4407 38.8282H34.5308C36.9052 38.8282 38.8355 36.8963 38.8355 34.5213V25.4345C38.8355 23.0596 36.9052 21.1275 34.5308 21.1275Z" fill="white"/>
</svg>
