<svg width="45" height="45" viewBox="0 0 45 45" fill="none" xmlns="http://www.w3.org/2000/svg">
<g clip-path="url(#clip0_895_4144)">
<path d="M22.5163 0.81958C10.5717 0.81958 0.819824 10.5715 0.819824 22.516C0.819824 34.4606 10.5714 44.2124 22.5163 44.2124C34.4611 44.2124 44.2127 34.4609 44.2127 22.516C44.2127 10.5711 34.4611 0.81958 22.5163 0.81958ZM31.0562 27.8247C31.9796 28.7481 31.9796 30.1906 31.0562 31.114C30.6525 31.5177 30.0178 31.7488 29.4405 31.7488C28.8633 31.7488 28.2866 31.5181 27.8249 31.0564L22.5161 25.8053L17.2074 31.114C16.7458 31.5178 16.1686 31.7488 15.5918 31.7488C15.0146 31.7488 14.4378 31.5182 13.9761 31.0565C13.0527 30.1331 13.0527 28.6905 13.9761 27.7672L19.2848 22.4585L13.9761 17.1498C13.0527 16.2264 13.0527 14.7839 13.9761 13.8605C14.8994 12.9372 16.342 12.9372 17.2654 13.8605L22.5741 19.1692L27.8828 13.8605C28.8061 12.9372 30.2487 12.9372 31.1721 13.8605C32.0954 14.7838 32.0954 16.2264 31.1721 17.1498L25.8054 22.516L31.0562 27.8247Z" fill="#418985"/>
</g>
<defs>
<clipPath id="clip0_895_4144">
<rect width="45" height="45" fill="white"/>
</clipPath>
</defs>
</svg>
