<svg width="40" height="40" viewBox="0 0 40 40" fill="none" xmlns="http://www.w3.org/2000/svg">
<g clip-path="url(#clip0_1027_535)">
<path d="M30.995 8.97229C30.9147 8.89189 30.8193 8.82815 30.7143 8.78472C30.6094 8.7413 30.4968 8.71904 30.3832 8.71924C30.2696 8.71904 30.1571 8.74129 30.0521 8.7847C29.9471 8.82811 29.8518 8.89184 29.7715 8.97221C29.4341 9.30955 29.4341 9.85846 29.7715 10.1957C30.1089 10.5332 30.6577 10.5331 30.9949 10.1957C31.0755 10.1156 31.1394 10.0202 31.1829 9.91518C31.2264 9.81017 31.2487 9.69758 31.2484 9.58393C31.2487 9.47029 31.2265 9.35771 31.183 9.25272C31.1395 9.14773 31.0756 9.05241 30.995 8.97229ZM16.6723 21.6695C16.4381 21.4353 16.217 21.3219 16.0085 21.3288C15.8002 21.3359 15.5929 21.4423 15.3869 21.6484L14.6914 22.3439L15.998 23.6504L16.6934 22.9549C16.8995 22.7489 17.0059 22.5417 17.013 22.3333C17.0201 22.125 16.9066 21.9038 16.6723 21.6695Z" fill="white"/>
<path d="M39.9419 15.4409L38.0361 4.89986C37.7673 3.41259 36.5874 2.23267 35.1002 1.96377L24.5591 0.0580683C23.9803 -0.0465321 23.3848 -0.00942575 22.8235 0.166215C22.2622 0.341856 21.7517 0.650808 21.3358 1.06666L1.06679 21.3358C0.378905 22.0237 0 22.9383 0 23.9111C0 24.8839 0.378827 25.7986 1.06679 26.4864L13.5136 38.9332C14.2015 39.6211 15.1161 40 16.089 40C17.0618 40 17.9764 39.6211 18.6643 38.9332L38.9333 18.6641C39.3491 18.2482 39.658 17.7377 39.8336 17.1764C40.0092 16.6151 40.0464 16.0196 39.9419 15.4409ZM15.0041 30.2146C14.9549 30.3809 14.8554 30.5389 14.7057 30.6886C14.5557 30.8386 14.3978 30.9381 14.2315 30.9872C14.0653 31.0365 13.9285 31.0071 13.8206 30.8993L9.36014 26.4388C9.25248 26.3311 9.21607 26.2013 9.25123 26.0491C9.28623 25.8969 9.36943 25.7553 9.50061 25.624L11.9381 23.1865C12.0458 23.0789 12.1747 23.0437 12.3244 23.0811C12.4743 23.1186 12.6123 23.2005 12.7388 23.3271C12.8746 23.4629 12.9601 23.6069 12.9953 23.759C13.0303 23.9114 12.9963 24.0389 12.8933 24.1419L11.074 25.9612L12.2611 27.1484L13.3218 26.0877C13.4247 25.9848 13.5477 25.9461 13.6906 25.9718C13.8334 25.9976 13.9634 26.0691 14.0804 26.1861C14.1881 26.2938 14.256 26.4179 14.2841 26.5583C14.3121 26.6988 14.2724 26.823 14.1647 26.9307L13.104 27.9914L14.9163 29.8036C15.0242 29.9115 15.0533 30.0484 15.0041 30.2146ZM20.9749 24.1384C20.9492 24.4077 20.8543 24.6244 20.6903 24.7883C20.5264 24.9522 20.3415 25.0013 20.1354 24.9358L17.3047 24.0297L16.8411 24.4933L18.5339 26.1861C18.6417 26.2939 18.6708 26.4309 18.6217 26.5971C18.5724 26.7635 18.4729 26.9215 18.3232 27.0712C18.1732 27.2211 18.0153 27.3206 17.8491 27.3697C17.6828 27.419 17.546 27.3897 17.4382 27.2819L12.9707 22.8144C12.8817 22.7254 12.8361 22.6166 12.8337 22.4876C12.8315 22.359 12.8795 22.2453 12.9779 22.147L14.4319 20.693C15.5839 19.541 16.6611 19.466 17.6632 20.4681C18.3936 21.1987 18.5856 21.9574 18.2391 22.744L20.6484 23.4395C20.7047 23.4489 20.7585 23.4794 20.81 23.5308C20.9457 23.6668 21.0007 23.8692 20.9749 24.1384ZM24.8559 20.5385L22.3553 23.0391C22.2241 23.1703 22.0825 23.2533 21.9302 23.2885C21.778 23.3237 21.6482 23.2873 21.5404 23.1795L17.08 18.7191C16.9723 18.6114 16.9359 18.4816 16.9711 18.3294C17.0061 18.1771 17.0893 18.0355 17.2204 17.9043L19.7211 15.4037C19.8288 15.296 19.9577 15.2609 20.1074 15.2982C20.2574 15.3357 20.3953 15.4177 20.5218 15.5442C20.6576 15.6801 20.7432 15.8241 20.7783 15.9762C20.8133 16.1285 20.7793 16.256 20.6764 16.359L18.7938 18.2416L19.981 19.4287L21.0347 18.375C21.1376 18.2721 21.2607 18.2334 21.4035 18.2591C21.5463 18.2848 21.6764 18.3563 21.7933 18.4733C21.901 18.581 21.9689 18.7051 21.997 18.8456C22.025 18.9861 21.9853 19.1103 21.8776 19.218L20.8239 20.2717L22.0179 21.4658L23.9005 19.5832C24.0034 19.4803 24.1311 19.4463 24.2833 19.4813C24.4356 19.5166 24.5794 19.6019 24.7153 19.7378C24.8416 19.8641 24.9237 20.0023 24.9612 20.1522C24.9988 20.3021 24.9635 20.4308 24.8559 20.5385ZM28.6419 16.7524L26.1411 19.2532C26.0099 19.3844 25.8683 19.4675 25.716 19.5026C25.5639 19.5377 25.4341 19.5014 25.3263 19.3936L20.8658 14.9331C20.7582 14.8255 20.7218 14.6956 20.7569 14.5434C20.792 14.3912 20.8751 14.2496 21.0063 14.1184L23.5069 11.6177C23.6146 11.5101 23.7435 11.4749 23.8932 11.5123C24.0431 11.5498 24.1811 11.6317 24.3076 11.7583C24.4434 11.8941 24.5289 12.0381 24.5641 12.1902C24.5991 12.3426 24.5651 12.4701 24.4621 12.573L22.5796 14.4556L23.7667 15.6428L24.8205 14.5891C24.9234 14.4862 25.0464 14.4474 25.1892 14.4731C25.3321 14.4989 25.4621 14.5705 25.579 14.6874C25.6867 14.7952 25.7546 14.9193 25.7828 15.0597C25.8107 15.2002 25.771 15.3244 25.6634 15.432L24.6096 16.4858L25.8037 17.6798L27.6863 15.7973C27.7892 15.6944 27.9169 15.6605 28.0691 15.6955C28.2214 15.7306 28.3653 15.816 28.5011 15.9519C28.6274 16.0782 28.7095 16.2165 28.7471 16.3662C28.7849 16.516 28.7496 16.6448 28.6419 16.7524ZM32.6539 11.8546C32.028 12.4805 31.2057 12.7935 30.3835 12.7935C29.5612 12.7935 28.739 12.4805 28.1131 11.8545C26.861 10.6026 26.861 8.56555 28.1131 7.3136C29.3649 6.06165 31.402 6.06157 32.6539 7.3136C33.2605 7.92009 33.5944 8.72641 33.5944 9.58407C33.5944 10.4417 33.2604 11.248 32.6539 11.8546Z" fill="white"/>
</g>
<defs>
<clipPath id="clip0_1027_535">
<rect width="40" height="40" fill="white"/>
</clipPath>
</defs>
</svg>
