<svg width="60" height="40" viewBox="0 0 60 40" fill="none" xmlns="http://www.w3.org/2000/svg">
<path d="M26.0049 12.6431H34.6219V28.1281H26.0049V12.6431Z" fill="#FF5F00"/>
<path d="M30.301 28.217C28.5675 29.5863 26.423 30.3311 24.214 30.3311C22.005 30.3311 19.8605 29.5863 18.127 28.217C13.86 24.852 13.121 18.67 16.485 14.403C19.85 10.107 26.032 9.36901 30.299 12.734C29.1329 13.6601 28.1905 14.837 27.5418 16.1773C26.8931 17.5177 26.5548 18.9869 26.552 20.476C26.5523 21.9656 26.8897 23.4357 27.5389 24.7764C28.1882 26.117 29.1325 27.2932 30.301 28.217Z" fill="#EB001B"/>
<path fill-rule="evenodd" clip-rule="evenodd" d="M46.2498 20.4801C46.2504 21.7735 45.9962 23.0543 45.5015 24.2494C45.0068 25.4444 44.2814 26.5303 43.3668 27.4448C42.4522 28.3593 41.3663 29.0846 40.1711 29.5792C38.976 30.0737 37.6952 30.3279 36.4018 30.3271C34.1975 30.3321 32.0567 29.5897 30.3288 28.2211C34.5958 24.8561 35.3348 18.6741 31.9718 14.4071C31.4768 13.8031 30.9298 13.2281 30.3008 12.7371C34.5678 9.3711 40.7778 10.1091 44.1168 14.3781C45.501 16.1104 46.2533 18.2627 46.2498 20.4801Z" fill="#F79E1B"/>
<rect x="0.3" y="0.3" width="59.4" height="39.4" rx="5.7" stroke="#418985" stroke-opacity="0.2" stroke-width="0.6"/>
</svg>
