<svg width="60" height="40" viewBox="0 0 60 40" fill="none" xmlns="http://www.w3.org/2000/svg">
<path d="M37.5222 15.621C37.7922 13.9 37.5202 12.729 36.5892 11.668C35.5642 10.5 33.7132 10 31.3442 10H24.4672C24.2331 10.0002 24.0067 10.0839 23.8287 10.236C23.6508 10.3882 23.5329 10.5988 23.4962 10.83L20.6322 28.988C20.6189 29.0722 20.624 29.1584 20.6472 29.2404C20.6704 29.3225 20.7111 29.3986 20.7665 29.4634C20.8219 29.5282 20.8907 29.5802 20.9682 29.6159C21.0457 29.6516 21.1299 29.67 21.2152 29.67H25.4612L25.1682 31.528C25.1565 31.6017 25.1609 31.6771 25.1812 31.749C25.2014 31.8208 25.237 31.8874 25.2855 31.9442C25.334 32.0009 25.3942 32.0465 25.462 32.0777C25.5298 32.1089 25.6036 32.1251 25.6782 32.125H29.2562C29.4613 32.1251 29.6597 32.0519 29.8155 31.9186C29.9714 31.7852 30.0745 31.6006 30.1062 31.398L30.1412 31.216L30.8152 26.942L30.8582 26.706C30.8899 26.5034 30.993 26.3188 31.1489 26.1854C31.3047 26.0521 31.5031 25.9789 31.7082 25.979H32.2442C35.7102 25.979 38.4242 24.571 39.2182 20.499C39.5492 18.796 39.3782 17.376 38.5012 16.377C38.2235 16.0672 37.8923 15.811 37.5222 15.621Z" fill="#009ADE"/>
<path d="M37.5222 15.621C37.7922 13.9 37.5202 12.729 36.5892 11.668C35.5642 10.5 33.7132 10 31.3442 10H24.4672C24.2331 10.0002 24.0067 10.0839 23.8287 10.236C23.6508 10.3882 23.5329 10.5988 23.4962 10.83L20.6322 28.988C20.6189 29.0722 20.624 29.1584 20.6472 29.2404C20.6704 29.3225 20.7111 29.3986 20.7665 29.4634C20.8219 29.5282 20.8907 29.5802 20.9682 29.6159C21.0457 29.6516 21.1299 29.67 21.2152 29.67H25.4612L26.5272 22.908L26.4942 23.12C26.53 22.8889 26.6472 22.6782 26.8248 22.526C27.0023 22.3738 27.2284 22.2901 27.4622 22.29H29.4802C33.4422 22.29 36.5452 20.68 37.4522 16.024C37.4782 15.886 37.5022 15.752 37.5222 15.621Z" fill="#002169"/>
<path d="M27.6722 15.644C27.7039 15.4414 27.807 15.2568 27.9629 15.1234C28.1187 14.9901 28.3171 14.9169 28.5222 14.917H33.9122C34.5522 14.917 35.1472 14.959 35.6912 15.047C35.9887 15.0954 36.2832 15.1608 36.5732 15.243C36.902 15.3352 37.2201 15.4619 37.5222 15.621C37.7922 13.9 37.5202 12.729 36.5892 11.668C35.5642 10.5 33.7132 10 31.3442 10H24.4672C24.2331 10.0002 24.0067 10.0839 23.8287 10.236C23.6508 10.3882 23.5329 10.5988 23.4962 10.83L20.6322 28.988C20.6189 29.0722 20.624 29.1584 20.6472 29.2404C20.6704 29.3225 20.7111 29.3986 20.7665 29.4634C20.8219 29.5282 20.8907 29.5802 20.9682 29.6159C21.0457 29.6516 21.1299 29.67 21.2152 29.67H25.4612L26.5272 22.908L27.6722 15.644Z" fill="#002F87"/>
<rect x="0.3" y="0.3" width="59.4" height="39.4" rx="5.7" stroke="#418985" stroke-opacity="0.2" stroke-width="0.6"/>
</svg>
