<svg width="40" height="40" viewBox="0 0 40 40" fill="none" xmlns="http://www.w3.org/2000/svg">
<g clip-path="url(#clip0_1027_528)">
<path d="M36.9332 33.9868L31.6973 24.988C32.6033 24.7116 33.5685 24.4675 33.9696 23.7751C34.6379 22.6212 33.4482 20.7285 33.7606 19.4917C34.0824 18.2189 35.9821 17.1175 35.9821 15.8237C35.9821 14.5632 34.0181 13.0906 33.6961 11.8252C33.3815 10.5887 34.5676 8.69387 33.8971 7.54146C33.2266 6.38893 30.9932 6.48362 30.0739 5.59896C29.1279 4.68858 29.1308 2.46114 27.9899 1.85104C26.8443 1.23868 24.9824 2.47627 23.7104 2.18312C22.453 1.89331 21.3295 0 20.016 0C18.6831 0 16.563 2.14766 16.2305 2.22495C14.9592 2.52048 13.0949 1.28592 11.9505 1.90088C10.8107 2.51303 10.8177 4.74068 9.87346 5.65258C8.95561 6.53886 6.72212 6.44828 6.05365 7.6021C5.38529 8.7557 6.575 10.648 6.26271 11.8854C5.94956 13.1259 3.98372 14.3829 3.98372 15.8175C3.98372 17.1115 5.88816 18.2094 6.21191 19.4816C6.52657 20.7181 5.34043 22.6127 6.01095 23.7655C6.376 24.393 7.20423 24.6506 8.03138 24.8983C8.12791 24.9271 8.31049 25.0351 8.18683 25.2153L3.0663 34.0528C2.70396 34.678 2.9982 35.2139 3.71996 35.2443L7.25287 35.3916C7.97463 35.422 8.88005 35.9465 9.26531 36.5576L11.1505 39.549C11.5358 40.1601 12.147 40.1486 12.5093 39.5235C12.5093 39.5235 17.7841 30.4168 17.7862 30.4142C17.892 30.2906 17.9984 30.316 18.0493 30.3592C18.6265 30.8506 19.431 31.3408 20.1025 31.3408C20.761 31.3408 21.3708 30.8794 21.974 30.3647C22.0231 30.3229 22.1425 30.2372 22.2299 30.4151C22.2313 30.4179 27.5002 39.4748 27.5002 39.4748C27.8634 40.0991 28.4748 40.1097 28.8589 39.4979L30.7388 36.5029C31.1229 35.8914 32.0274 35.3648 32.7491 35.3334L36.2817 35.1794C37.0032 35.1478 37.2964 34.6111 36.9332 33.9868ZM25.8546 25.7952C21.9485 28.0677 17.2598 27.8241 13.6786 25.5652C8.43102 22.204 6.70439 15.2508 9.85897 9.80608C13.0495 4.29856 20.0632 2.35521 25.6203 5.3818C25.6495 5.39769 25.6783 5.41412 25.7073 5.43033C25.7485 5.45314 25.7896 5.47627 25.8305 5.49962C27.545 6.48806 29.0316 7.9226 30.0961 9.75235C33.3496 15.3448 31.447 22.5417 25.8546 25.7952Z" fill="white"/>
<path d="M24.9614 7.14561C24.9452 7.1362 24.9287 7.12745 24.9125 7.11815C21.944 5.40007 18.1604 5.27446 14.9894 7.11934C10.2837 9.85699 8.68249 15.9124 11.4201 20.618C12.2555 22.0539 13.4003 23.2002 14.721 24.0228C14.8336 24.0945 14.9476 24.1639 15.063 24.2311C19.7737 26.9602 25.8259 25.3481 28.5549 20.6376C31.2838 15.9268 29.6721 9.87472 24.9614 7.14561ZM26.1399 14.8465L24.4904 16.4542C23.9795 16.9521 23.6602 17.9349 23.781 18.6381L24.1703 20.9082C24.291 21.6114 23.8731 21.915 23.2416 21.5831L21.2028 20.5112C20.5713 20.1792 19.538 20.1792 18.9065 20.5112L16.8678 21.5831C16.2363 21.915 15.8183 21.6114 15.9389 20.9082L16.3283 18.6381C16.4489 17.9349 16.1296 16.9521 15.6187 16.4542L13.9694 14.8465C13.4584 14.3486 13.6182 13.8572 14.3242 13.7545L16.6035 13.4233C17.3095 13.3207 18.1455 12.7133 18.4612 12.0736L19.4806 10.0082C19.7963 9.3685 20.313 9.3685 20.6287 10.0082L21.6481 12.0736C21.9639 12.7133 22.7998 13.3207 23.5059 13.4233L25.7852 13.7545C26.4911 13.8572 26.6507 14.3486 26.1399 14.8465Z" fill="white"/>
</g>
<defs>
<clipPath id="clip0_1027_528">
<rect width="40" height="40" fill="white"/>
</clipPath>
</defs>
</svg>
