<svg width="45" height="45" viewBox="0 0 45 45" fill="none" xmlns="http://www.w3.org/2000/svg">
<path d="M40.0728 9.67729C33.2224 8.82294 26.6358 3.7125 23.8868 1.32043C23.1102 0.65263 21.9608 0.65263 21.1997 1.32043C18.4349 3.7125 11.8485 8.82294 4.99869 9.67729C3.91134 9.81702 3.10342 10.7334 3.13467 11.8364C3.9734 32.6513 17.6581 41.785 21.5104 43.9446C22.1317 44.3017 22.8928 44.3017 23.5141 43.9446C27.3662 41.7699 41.051 32.6362 41.8898 11.8364C41.9678 10.7337 41.16 9.817 40.0726 9.67729H40.0728ZM22.5359 32.8222C16.8349 32.8222 12.2216 28.2086 12.2216 22.508C12.2216 16.807 16.8352 12.1937 22.5359 12.1937C28.2368 12.1937 32.8501 16.8073 32.8501 22.508C32.8501 28.209 28.2368 32.8222 22.5359 32.8222Z" fill="#418985"/>
<path d="M27.0866 17.2888L20.9356 23.4402L17.9375 20.4424L15.8096 22.5703L18.8074 25.5685L20.9664 27.7275L23.1102 25.5993L29.2612 19.4479L27.0866 17.2888Z" fill="#418985"/>
</svg>
