<svg width="60" height="40" viewBox="0 0 60 40" fill="none" xmlns="http://www.w3.org/2000/svg">
<path d="M51.8749 27.6599H48.5809C48.4609 27.0809 48.3309 26.5149 48.2299 25.9439C48.1869 25.7059 48.1119 25.6139 47.8469 25.6179C46.5269 25.6349 45.2049 25.6309 43.8849 25.6199C43.6849 25.6189 43.6049 25.6849 43.5449 25.8669C43.3619 26.4109 43.1629 26.9499 42.9599 27.4869C42.9319 27.5599 42.8399 27.6599 42.7779 27.6599C41.5879 27.6699 40.3969 27.6679 39.1719 27.6679C39.3949 27.1309 39.6059 26.6179 39.8209 26.1049L44.4269 15.1189C44.7599 14.3259 45.2579 13.9939 46.1159 13.9939H49.0069C49.1029 14.4399 49.1989 14.8799 49.2909 15.3209C50.0469 18.9399 50.7999 22.5599 51.5569 26.1779C51.6539 26.6419 51.7689 27.1019 51.8749 27.5629V27.6599ZM47.5649 22.8039L46.5199 17.7999L46.4769 17.7909L44.6599 22.8029H47.5639L47.5649 22.8039Z" fill="url(#paint0_linear_895_4117)"/>
<path d="M37.5266 13.75C37.9616 13.83 38.3996 13.897 38.8296 13.996C39.2226 14.087 39.6066 14.213 40.0246 14.332L39.4076 17.216C38.8576 17.054 38.3306 16.868 37.7896 16.749C37.0496 16.585 36.2916 16.523 35.5516 16.729C35.242 16.8169 34.9546 16.9696 34.7086 17.177C34.3026 17.526 34.2966 18.027 34.6856 18.392C34.9526 18.644 35.2696 18.852 35.5866 19.042C36.3076 19.475 37.0646 19.852 37.7646 20.315C38.5896 20.86 39.1906 21.61 39.3176 22.623C39.5406 24.415 38.8776 25.827 37.3726 26.826C36.4256 27.454 35.3546 27.735 34.2376 27.838C32.6928 27.9842 31.1346 27.8078 29.6616 27.32C29.5616 27.287 29.4646 27.246 29.3676 27.206C29.3376 27.194 29.3126 27.173 29.2676 27.146L29.9066 24.159C30.1596 24.269 30.3986 24.381 30.6416 24.479C31.8056 24.948 33.0076 25.162 34.2516 24.929C34.5766 24.869 34.9066 24.725 35.1816 24.541C35.7776 24.141 35.8346 23.391 35.2916 22.921C34.9356 22.613 34.5066 22.385 34.1006 22.138C33.4656 21.751 32.7906 21.422 32.1906 20.988C31.4206 20.434 30.8626 19.694 30.7576 18.711C30.5986 17.24 31.1446 16.044 32.2746 15.116C33.2576 14.308 34.4246 13.949 35.6686 13.799C35.7386 13.79 35.8046 13.767 35.8726 13.75H37.5266Z" fill="url(#paint1_linear_895_4117)"/>
<path d="M24.72 14.0041C24.535 14.4501 24.36 14.8741 24.182 15.2971C22.487 19.3411 20.79 23.3841 19.102 27.4301C19.021 27.6231 18.922 27.6741 18.727 27.6721C17.657 27.6631 16.587 27.6601 15.517 27.6751C15.291 27.6781 15.217 27.5981 15.165 27.3951C14.258 23.8601 13.335 20.3301 12.439 16.7931C12.274 16.1431 11.945 15.7001 11.327 15.4281C10.337 14.9921 9.309 14.6861 8.261 14.4381L8.125 14.4031C8.13 13.9931 8.13 13.9931 8.52 13.9931H14.137C15.025 13.9931 15.667 14.5091 15.834 15.3881C16.31 17.8771 16.774 20.3671 17.244 22.8571C17.264 22.9651 17.288 23.0741 17.319 23.2271C17.368 23.1361 17.402 23.0841 17.424 23.0291C18.587 20.0871 19.75 17.1461 20.907 14.2031C20.97 14.0421 21.048 13.9871 21.221 13.9891C22.308 13.9971 23.394 13.9931 24.48 13.9931C24.55 13.9931 24.62 14.0001 24.72 14.0041Z" fill="url(#paint2_linear_895_4117)"/>
<path d="M23.3008 27.67L26.2238 14.009H29.7718C29.6238 14.702 29.4798 15.382 29.3338 16.061C28.5308 19.82 27.7238 23.577 26.9288 27.337C26.8738 27.599 26.7808 27.682 26.5098 27.677C25.5378 27.657 24.5648 27.669 23.5928 27.669H23.2998L23.3008 27.67Z" fill="url(#paint3_linear_895_4117)"/>
<rect x="0.3" y="0.3" width="59.4" height="39.4" rx="5.7" stroke="#418985" stroke-opacity="0.2" stroke-width="0.6"/>
<defs>
<linearGradient id="paint0_linear_895_4117" x1="10.5739" y1="21.0799" x2="51.6449" y2="20.8099" gradientUnits="userSpaceOnUse">
<stop stop-color="#262860"/>
<stop offset="1" stop-color="#3D429B"/>
</linearGradient>
<linearGradient id="paint1_linear_895_4117" x1="10.5726" y1="20.977" x2="51.6446" y2="20.706" gradientUnits="userSpaceOnUse">
<stop stop-color="#262860"/>
<stop offset="1" stop-color="#3D429B"/>
</linearGradient>
<linearGradient id="paint2_linear_895_4117" x1="10.573" y1="20.8531" x2="51.645" y2="20.5821" gradientUnits="userSpaceOnUse">
<stop stop-color="#262860"/>
<stop offset="1" stop-color="#3D429B"/>
</linearGradient>
<linearGradient id="paint3_linear_895_4117" x1="10.5728" y1="20.947" x2="51.6448" y2="20.677" gradientUnits="userSpaceOnUse">
<stop stop-color="#262860"/>
<stop offset="1" stop-color="#3D429B"/>
</linearGradient>
</defs>
</svg>
