<svg width="30" height="30" viewBox="0 0 30 30" fill="none" xmlns="http://www.w3.org/2000/svg">
<path d="M15 13.125V20.625M18.75 16.875H11.25M16.325 7.8875L13.675 5.2375C13.5009 5.06319 13.2942 4.9249 13.0666 4.83053C12.839 4.73615 12.5951 4.68755 12.3487 4.6875H5.625C4.87908 4.6875 4.16371 4.98382 3.63626 5.51126C3.10882 6.03871 2.8125 6.75408 2.8125 7.5V22.5C2.8125 23.2459 3.10882 23.9613 3.63626 24.4887C4.16371 25.0162 4.87908 25.3125 5.625 25.3125H24.375C25.1209 25.3125 25.8363 25.0162 26.3637 24.4887C26.8912 23.9613 27.1875 23.2459 27.1875 22.5V11.25C27.1875 10.5041 26.8912 9.78871 26.3637 9.26126C25.8363 8.73382 25.1209 8.4375 24.375 8.4375H17.6513C17.1541 8.43706 16.6763 8.23923 16.325 7.8875Z" stroke="white" stroke-width="2" stroke-linecap="round" stroke-linejoin="round"/>
</svg>
