<svg width="178" height="12" viewBox="0 0 178 12" fill="none" xmlns="http://www.w3.org/2000/svg">
<path d="M178 6L173 3.11325V8.88675L178 6ZM0 6.5H2.02273V5.5H0V6.5ZM6.06818 6.5H10.1136V5.5H6.06818V6.5ZM14.1591 6.5H18.2045V5.5H14.1591V6.5ZM22.25 6.5H26.2955V5.5H22.25V6.5ZM30.3409 6.5H34.3864V5.5H30.3409V6.5ZM38.4318 6.5H42.4773V5.5H38.4318V6.5ZM46.5227 6.5H50.5682V5.5H46.5227V6.5ZM54.6136 6.5H58.6591V5.5H54.6136V6.5ZM62.7045 6.5H66.75V5.5H62.7045V6.5ZM70.7955 6.5H74.8409V5.5H70.7955V6.5ZM78.8864 6.5H82.9318V5.5H78.8864V6.5ZM86.9773 6.5H91.0227V5.5H86.9773V6.5ZM95.0682 6.5H99.1137V5.5H95.0682V6.5ZM103.159 6.5H107.205V5.5H103.159V6.5ZM111.25 6.5H115.295V5.5H111.25V6.5ZM119.341 6.5H123.386V5.5H119.341V6.5ZM127.432 6.5H131.477V5.5H127.432V6.5ZM135.523 6.5H139.568V5.5H135.523V6.5ZM143.614 6.5H147.659V5.5H143.614V6.5ZM151.705 6.5H155.75V5.5H151.705V6.5ZM159.795 6.5H163.841V5.5H159.795V6.5ZM167.886 6.5H171.932V5.5H167.886V6.5ZM178 6L168 0.226497V11.7735L178 6ZM0 7H2.02273V5H0V7ZM6.06818 7H10.1136V5H6.06818V7ZM14.1591 7H18.2045V5H14.1591V7ZM22.25 7H26.2955V5H22.25V7ZM30.3409 7H34.3864V5H30.3409V7ZM38.4318 7H42.4773V5H38.4318V7ZM46.5227 7H50.5682V5H46.5227V7ZM54.6136 7H58.6591V5H54.6136V7ZM62.7045 7H66.75V5H62.7045V7ZM70.7955 7H74.8409V5H70.7955V7ZM78.8864 7H82.9318V5H78.8864V7ZM86.9773 7H91.0227V5H86.9773V7ZM95.0682 7H99.1137V5H95.0682V7ZM103.159 7H107.205V5H103.159V7ZM111.25 7H115.295V5H111.25V7ZM119.341 7H123.386V5H119.341V7ZM127.432 7H131.477V5H127.432V7ZM135.523 7H139.568V5H135.523V7ZM143.614 7H147.659V5H143.614V7ZM151.705 7H155.75V5H151.705V7ZM159.795 7H163.841V5H159.795V7ZM167.886 7H171.932V5H167.886V7Z" fill="url(#paint0_linear_895_787)"/>
<defs>
<linearGradient id="paint0_linear_895_787" x1="178" y1="6.00019" x2="0" y2="6" gradientUnits="userSpaceOnUse">
<stop stop-color="#A8A7A7"/>
<stop offset="1" stop-color="#A8A7A7" stop-opacity="0"/>
</linearGradient>
</defs>
</svg>
