<svg width="15" height="15" viewBox="0 0 15 15" fill="none" xmlns="http://www.w3.org/2000/svg">
<path d="M6.05497 7.50317L11.6664 1.89146C11.8209 1.73732 11.9059 1.53122 11.9059 1.31146C11.9059 1.09159 11.8209 0.88561 11.6664 0.731219L11.1747 0.239756C11.0205 0.0851219 10.8142 0 10.5945 0C10.3747 0 10.1688 0.0851219 10.0144 0.239756L3.33302 6.92097C3.17802 7.07585 3.09314 7.2828 3.09375 7.5028C3.09314 7.72378 3.1779 7.93049 3.33302 8.08549L10.0081 14.7602C10.1625 14.9149 10.3685 15 10.5884 15C10.8081 15 11.0141 14.9149 11.1686 14.7602L11.6602 14.2688C11.9801 13.9489 11.9801 13.4282 11.6602 13.1084L6.05497 7.50317Z" fill="#418985"/>
</svg>
