<svg width="35" height="35" viewBox="0 0 35 35" fill="none" xmlns="http://www.w3.org/2000/svg">
<path d="M17.5 15.3125V24.0625M21.875 19.6875H13.125M19.0458 9.20208L15.9542 6.11042C15.7511 5.90706 15.5099 5.74571 15.2444 5.63561C14.9789 5.52551 14.6943 5.46881 14.4069 5.46875H6.5625C5.69226 5.46875 4.85766 5.81445 4.24231 6.42981C3.62695 7.04516 3.28125 7.87976 3.28125 8.75V26.25C3.28125 27.1202 3.62695 27.9548 4.24231 28.5702C4.85766 29.1855 5.69226 29.5313 6.5625 29.5313H28.4375C29.3077 29.5313 30.1423 29.1855 30.7577 28.5702C31.373 27.9548 31.7188 27.1202 31.7188 26.25V13.125C31.7188 12.2548 31.373 11.4202 30.7577 10.8048C30.1423 10.1895 29.3077 9.84375 28.4375 9.84375H20.5931C20.0132 9.84324 19.4557 9.61244 19.0458 9.20208Z" stroke="#DE7243" stroke-width="2" stroke-linecap="round" stroke-linejoin="round"/>
</svg>
