<svg width="7" height="25" viewBox="0 0 7 25" fill="none" xmlns="http://www.w3.org/2000/svg">
<path d="M5.27691 0.862069C3.78487 -0.928382 0.800781 0.265252 0.800781 2.65252C0.800781 5.03979 3.78487 6.23342 5.27691 4.44297C6.47054 3.54775 6.47054 1.75729 5.27691 0.862069Z" fill="#848484"/>
<path d="M5.27691 11.0085C3.78487 9.51641 0.800781 10.71 0.800781 12.7989C0.800781 15.1862 3.78487 16.3798 5.27691 14.8878C6.47054 13.6941 6.47054 12.2021 5.27691 11.0085Z" fill="#848484"/>
<path d="M5.27691 20.5574C3.78487 18.7669 0.800781 19.9606 0.800781 22.3478C0.800781 24.7351 3.78487 25.9287 5.27691 24.1383C6.47054 23.2431 6.47054 21.4526 5.27691 20.5574Z" fill="#848484"/>
</svg>
