<svg width="20" height="15" viewBox="0 0 20 15" fill="none" xmlns="http://www.w3.org/2000/svg">
<path d="M0.893886 0.788805C1.25645 0.523976 1.69364 0.380801 2.14278 0.379826H17.8571C18.2965 0.380144 18.7249 0.516625 19.0836 0.77045L10.5918 6.35168C10.4164 6.46695 10.2112 6.52865 10.0012 6.52897C9.79141 6.52913 9.58589 6.46823 9.41021 6.35343L0.893886 0.788805ZM11.3763 7.54554C10.9685 7.81372 10.4913 7.95705 10.0032 7.95787C9.51519 7.9585 9.03752 7.81676 8.62903 7.5497L0.082906 1.96521C0.0304488 2.14665 0.00254694 2.33416 0 2.52293V12.5229C0.000637755 13.091 0.226563 13.6358 0.628367 14.0374C1.02999 14.4392 1.57482 14.6651 2.14286 14.6658H17.8571C18.4252 14.6651 18.97 14.4392 19.3716 14.0374C19.7734 13.6358 19.9993 13.091 20 12.5229V2.52293C19.9971 2.32443 19.9664 2.1272 19.9085 1.93713L11.3763 7.54554Z" fill="white"/>
</svg>
