<svg width="36" height="36" viewBox="0 0 36 36" fill="none" xmlns="http://www.w3.org/2000/svg">
<g clip-path="url(#clip0_221_7412)">
<path d="M1.95833 7.42649H5.94833C6.26134 8.57818 6.94463 9.59487 7.89277 10.3197C8.84091 11.0446 10.0012 11.4373 11.1947 11.4373C12.3882 11.4373 13.5485 11.0446 14.4966 10.3197C15.4447 9.59487 16.128 8.57818 16.441 7.42649H34.0417C34.4284 7.42649 34.7994 7.27284 35.0729 6.99935C35.3464 6.72586 35.5 6.35493 35.5 5.96815C35.5 5.58138 35.3464 5.21044 35.0729 4.93695C34.7994 4.66346 34.4284 4.50982 34.0417 4.50982H16.441C16.128 3.35813 15.4447 2.34143 14.4966 1.61659C13.5485 0.89174 12.3882 0.499023 11.1947 0.499023C10.0012 0.499023 8.84091 0.89174 7.89277 1.61659C6.94463 2.34143 6.26134 3.35813 5.94833 4.50982H1.95833C1.57156 4.50982 1.20063 4.66346 0.927136 4.93695C0.653645 5.21044 0.5 5.58138 0.5 5.96815C0.5 6.35493 0.653645 6.72586 0.927136 6.99935C1.20063 7.27284 1.57156 7.42649 1.95833 7.42649ZM11.194 3.41607C11.6987 3.41607 12.1921 3.56574 12.6118 3.84617C13.0315 4.1266 13.3586 4.52518 13.5518 4.99151C13.7449 5.45784 13.7955 5.97098 13.697 6.46604C13.5985 6.96109 13.3555 7.41583 12.9986 7.77275C12.6416 8.12966 12.1869 8.37273 11.6918 8.4712C11.1968 8.56967 10.6837 8.51913 10.2173 8.32597C9.75099 8.13281 9.35241 7.8057 9.07198 7.38601C8.79155 6.96633 8.64188 6.47291 8.64188 5.96815C8.64265 5.29153 8.91177 4.64285 9.39022 4.16441C9.86866 3.68597 10.5173 3.41684 11.194 3.41607ZM34.0417 16.5411H30.0517C29.7392 15.3891 29.0562 14.372 28.1081 13.6469C27.16 12.9218 25.9996 12.5289 24.806 12.5289C23.6124 12.5289 22.452 12.9218 21.504 13.6469C20.5559 14.372 19.8729 15.3891 19.5604 16.5411H1.95833C1.57156 16.5411 1.20063 16.6947 0.927136 16.9682C0.653645 17.2417 0.5 17.6126 0.5 17.9994C0.5 18.3862 0.653645 18.7571 0.927136 19.0306C1.20063 19.3041 1.57156 19.4577 1.95833 19.4577H19.5604C19.8729 20.6097 20.5559 21.6268 21.504 22.3519C22.452 23.077 23.6124 23.47 24.806 23.47C25.9996 23.47 27.16 23.077 28.1081 22.3519C29.0562 21.6268 29.7392 20.6097 30.0517 19.4577H34.0417C34.4284 19.4577 34.7994 19.3041 35.0729 19.0306C35.3464 18.7571 35.5 18.3862 35.5 17.9994C35.5 17.6126 35.3464 17.2417 35.0729 16.9682C34.7994 16.6947 34.4284 16.5411 34.0417 16.5411ZM24.806 20.5515C24.3013 20.5515 23.8079 20.4018 23.3882 20.1214C22.9685 19.841 22.6414 19.4424 22.4482 18.976C22.2551 18.5097 22.2045 17.9966 22.303 17.5015C22.4015 17.0065 22.6445 16.5517 23.0014 16.1948C23.3584 15.8379 23.8131 15.5948 24.3082 15.4964C24.8032 15.3979 25.3164 15.4484 25.7827 15.6416C26.249 15.8347 26.6476 16.1619 26.928 16.5815C27.2084 17.0012 27.3581 17.4946 27.3581 17.9994C27.3574 18.676 27.0882 19.3247 26.6098 19.8031C26.1313 20.2816 25.4827 20.5507 24.806 20.5515ZM34.0417 28.5723H16.441C16.128 27.4206 15.4447 26.4039 14.4966 25.6791C13.5485 24.9542 12.3882 24.5615 11.1947 24.5615C10.0012 24.5615 8.84091 24.9542 7.89277 25.6791C6.94463 26.4039 6.26134 27.4206 5.94833 28.5723H1.95833C1.57156 28.5723 1.20063 28.726 0.927136 28.9995C0.653645 29.2729 0.5 29.6439 0.5 30.0307C0.5 30.4174 0.653645 30.7884 0.927136 31.0619C1.20063 31.3353 1.57156 31.489 1.95833 31.489H5.94833C6.26134 32.6407 6.94463 33.6574 7.89277 34.3822C8.84091 35.1071 10.0012 35.4998 11.1947 35.4998C12.3882 35.4998 13.5485 35.1071 14.4966 34.3822C15.4447 33.6574 16.128 32.6407 16.441 31.489H34.0417C34.4284 31.489 34.7994 31.3353 35.0729 31.0619C35.3464 30.7884 35.5 30.4174 35.5 30.0307C35.5 29.6439 35.3464 29.2729 35.0729 28.9995C34.7994 28.726 34.4284 28.5723 34.0417 28.5723ZM11.194 32.5827C10.6892 32.5827 10.1958 32.4331 9.7761 32.1526C9.35641 31.8722 9.0293 31.4736 8.83614 31.0073C8.64298 30.541 8.59244 30.0278 8.69091 29.5328C8.78939 29.0377 9.03245 28.583 9.38936 28.2261C9.74628 27.8691 10.201 27.6261 10.6961 27.5276C11.1911 27.4291 11.7043 27.4797 12.1706 27.6728C12.6369 27.866 13.0355 28.1931 13.3159 28.6128C13.5964 29.0325 13.746 29.5259 13.746 30.0307C13.7449 30.7072 13.4756 31.3556 12.9973 31.834C12.5189 32.3123 11.8705 32.5816 11.194 32.5827Z" fill="#418985"/>
</g>
<defs>
<clipPath id="clip0_221_7412">
<rect width="35" height="35" fill="white" transform="translate(0.5 0.5)"/>
</clipPath>
</defs>
</svg>
