<svg width="12" height="17" viewBox="0 0 12 17" fill="none" xmlns="http://www.w3.org/2000/svg">
<path fill-rule="evenodd" clip-rule="evenodd" d="M0.166016 6.03917C0.166016 2.81417 2.77435 0.205841 5.99935 0.205841C9.22435 0.205841 11.8327 2.81417 11.8327 6.03917C11.8327 9.51417 8.14935 14.3058 6.64102 16.1308C6.30768 16.5308 5.69935 16.5308 5.36602 16.1308C3.84935 14.3058 0.166016 9.51417 0.166016 6.03917ZM3.91602 6.03917C3.91602 7.18917 4.84935 8.12251 5.99935 8.12251C7.14935 8.12251 8.08268 7.18917 8.08268 6.03917C8.08268 4.88917 7.14935 3.95584 5.99935 3.95584C4.84935 3.95584 3.91602 4.88917 3.91602 6.03917Z" fill="white"/>
</svg>
