<svg width="16" height="16" viewBox="0 0 16 16" fill="none" xmlns="http://www.w3.org/2000/svg">
<path fill-rule="evenodd" clip-rule="evenodd" d="M14.0245 10.2569L11.9079 10.0153C11.3995 9.95695 10.8995 10.1319 10.5412 10.4903L9.00788 12.0236C6.64955 10.8236 4.71621 8.89861 3.51621 6.53195L5.05788 4.99028C5.41621 4.63195 5.59121 4.13195 5.53288 3.62361L5.29121 1.52361C5.19121 0.681948 4.48288 0.0486145 3.63288 0.0486145H2.19121C1.24955 0.0486145 0.466212 0.831948 0.524546 1.77361C0.966212 8.89028 6.65788 14.5736 13.7662 15.0153C14.7079 15.0736 15.4912 14.2903 15.4912 13.3486V11.9069C15.4995 11.0653 14.8662 10.3569 14.0245 10.2569Z" fill="white"/>
</svg>
