<svg width="24" height="24" viewBox="0 0 24 24" fill="none" xmlns="http://www.w3.org/2000/svg">
<g clip-path="url(#clip0_895_3613)">
<path d="M24 16.895C24 17.2301 23.867 17.5513 23.6299 17.7882C23.3931 18.025 23.0719 18.1583 22.7369 18.1583H21.4736V19.4213C21.4736 19.8726 21.233 20.2896 20.8422 20.5153C20.4514 20.7409 19.9697 20.7409 19.5789 20.5153C19.1881 20.2896 18.9474 19.8726 18.9474 19.4213V18.1583H17.6841C17.2329 18.1583 16.8159 17.9174 16.5902 17.5266C16.3646 17.1358 16.3646 16.6543 16.5902 16.2635C16.8159 15.8727 17.2329 15.6319 17.6841 15.6319H18.9472L18.9474 14.3688C18.9474 13.9175 19.1881 13.5005 19.5789 13.2749C19.9697 13.0492 20.4514 13.0492 20.8422 13.2749C21.233 13.5005 21.4736 13.9175 21.4736 14.3688V15.6319H22.7369C23.0719 15.6319 23.3931 15.7649 23.6299 16.0019C23.867 16.2388 24 16.56 24 16.895ZM13.8945 15.6319H1.26314C0.811874 15.6319 0.394863 15.8727 0.169227 16.2635C-0.0564091 16.6543 -0.0564091 17.1358 0.169227 17.5266C0.394863 17.9174 0.811868 18.1583 1.26314 18.1583H13.8945C14.3458 18.1583 14.7628 17.9174 14.9885 17.5266C15.2141 17.1358 15.2141 16.6543 14.9885 16.2635C14.7628 15.8727 14.3458 15.6319 13.8945 15.6319ZM1.26314 11.8424H20.2105C20.6618 11.8424 21.0788 11.6015 21.3044 11.2107C21.5301 10.8199 21.5301 10.3385 21.3044 9.94765C21.0788 9.55685 20.6618 9.316 20.2105 9.316H1.26314C0.811874 9.316 0.394863 9.55686 0.169227 9.94765C-0.0564091 10.3384 -0.0564091 10.8199 0.169227 11.2107C0.394863 11.6015 0.811868 11.8424 1.26314 11.8424ZM1.26314 5.52642H20.2105C20.6618 5.52642 21.0788 5.28577 21.3044 4.89498C21.5301 4.5042 21.5301 4.02248 21.3044 3.63168C21.0788 3.24088 20.6618 3.00024 20.2105 3.00024H1.26314C0.811874 3.00024 0.394863 3.24089 0.169227 3.63168C-0.0564091 4.02247 -0.0564091 4.50418 0.169227 4.89498C0.394863 5.28579 0.811868 5.52642 1.26314 5.52642Z" fill="#418985"/>
</g>
<defs>
<clipPath id="clip0_895_3613">
<rect width="24" height="24" fill="white"/>
</clipPath>
</defs>
</svg>
