<svg width="76" height="76" viewBox="0 0 76 76" fill="none" xmlns="http://www.w3.org/2000/svg">
<rect width="76" height="76" rx="20" fill="#DE7243" fill-opacity="0.25"/>
<g clip-path="url(#clip0_895_739)">
<path d="M49.4342 34.3557C49.4342 28.1253 44.2547 23.0562 37.889 23.0562C31.5232 23.0562 26.3438 28.1254 26.3438 34.3557C26.3438 40.586 31.5232 45.6553 37.889 45.6553C44.2547 45.6553 49.4342 40.586 49.4342 34.3557ZM37.889 43.9683C32.4726 43.9683 28.0674 39.656 28.0674 34.3557C28.0674 29.0554 32.473 24.7431 37.889 24.7431C43.3045 24.7431 47.7105 29.0554 47.7105 34.3557C47.7105 39.656 43.3041 43.9683 37.889 43.9683Z" fill="#DE7243"/>
<path d="M40.9354 30.0891L37.8054 25.4077L34.7672 30.1852L29.251 31.6517L32.9545 35.955L32.6752 41.5432L38.0018 39.4255L43.3456 41.4122L42.9344 35.8003L46.5161 31.4402L40.9354 30.0891ZM41.4332 38.8981L37.9806 37.6143L34.528 38.986L34.7079 35.3758L32.3081 32.5866L35.8713 31.6389L37.8406 28.543L39.8629 31.5671L43.4798 32.4434L41.1662 35.2605L41.4332 38.8981Z" fill="#DE7243"/>
<path d="M51.0646 42.689L53.1497 41.2024L52.9433 37.3427L54.7652 34.0173L52.868 30.6271L53.036 26.8573L49.8238 24.6085L48.3037 21.1403L44.4134 20.4786L41.5058 18L37.707 19.0555L33.9887 18.0569L31.0338 20.6218L27.2405 21.3011L25.7152 24.8662L22.5988 27.0891L22.8056 30.9488L20.9833 34.2742L22.8805 37.6644L22.7126 41.4342L24.7721 42.876L18.7197 48.7988L24.8812 51.1186L27.2514 57.1489L34.2636 50.2852L38.0416 49.2359L41.6922 50.2165L48.7418 57.1157L51.1119 51.0853L57.2738 48.7656L51.0646 42.689ZM26.2146 49.8125L21.8142 48.1564L26.0627 43.9975L27.4446 47.15L31.3352 47.8117L32.9488 49.1865L27.9083 54.1197L26.2146 49.8125ZM38.0338 47.4834L34.6705 48.4181L32.104 46.2302L28.6598 45.6442L27.3185 42.5835L24.4738 40.5929L24.622 37.2655L22.9429 34.2637L24.5516 31.3289L24.3684 27.9117L27.1189 25.9505L28.4691 22.7941L31.8163 22.1952L34.4321 19.9253L37.714 20.8063L41.0772 19.8716L43.6429 22.0595L47.0879 22.6455L48.4301 25.7061L51.2736 27.6967L51.1253 31.0241L52.8045 34.026L51.1958 36.9608L51.3785 40.3779L48.6288 42.3391L47.2782 45.4955L43.931 46.0937L41.3152 48.3644L38.0338 47.4834ZM49.779 49.7787L48.0858 54.0867L43.0257 49.1351L44.7141 47.6692L48.5074 46.9907L49.8404 43.8766L54.1787 48.1234L49.779 49.7787Z" fill="#DE7243"/>
</g>
<defs>
<clipPath id="clip0_895_739">
<rect width="40" height="39.1489" fill="white" transform="translate(18 18)"/>
</clipPath>
</defs>
</svg>
