<svg width="22" height="22" viewBox="0 0 22 22" fill="none" xmlns="http://www.w3.org/2000/svg">
<path d="M14.5921 7.28321L21.2874 8.18871C21.5892 8.21608 21.7265 8.60023 21.5069 8.81977L16.705 13.5943C16.6227 13.6766 16.5678 13.8138 16.5953 13.9235L17.8301 20.5639C17.885 20.8657 17.5556 21.1126 17.2813 20.9754L11.2721 17.8749C11.1624 17.8199 11.0251 17.8199 10.9153 17.8749L4.98835 21.1128C4.71387 21.2501 4.38468 21.0305 4.4396 20.7287L5.50975 14.0609C5.53712 13.9512 5.48238 13.814 5.40007 13.7317L0.515833 9.067C0.296292 8.84746 0.406159 8.46333 0.708003 8.43594L7.37532 7.36561C7.485 7.33823 7.59486 7.25593 7.64979 7.14606L10.5583 1.05449C10.6956 0.780014 11.0797 0.780014 11.2169 1.05449L14.3177 7.09119C14.3724 7.20086 14.4547 7.28316 14.5919 7.28316L14.5921 7.28321Z" fill="#E79637"/>
</svg>
