<svg width="30" height="30" viewBox="0 0 30 30" fill="none" xmlns="http://www.w3.org/2000/svg">
    <path d="M19.6863 7.5C19.6863 8.7432 19.1924 9.93549 18.3133 10.8146C17.4342 11.6936 16.242 12.1875 14.9988 12.1875C13.7555 12.1875 12.5633 11.6936 11.6842 10.8146C10.8051 9.93549 10.3113 8.7432 10.3113 7.5C10.3113 6.2568 10.8051 5.06451 11.6842 4.18544C12.5633 3.30636 13.7555 2.8125 14.9988 2.8125C16.242 2.8125 17.4342 3.30636 18.3133 4.18544C19.1924 5.06451 19.6863 6.2568 19.6863 7.5ZM5.625 25.1475C5.66517 22.6879 6.67042 20.3427 8.42397 18.6176C10.1775 16.8924 12.5389 15.9256 14.9988 15.9256C17.4586 15.9256 19.82 16.8924 21.5735 18.6176C23.3271 20.3427 24.3323 22.6879 24.3725 25.1475C21.4317 26.496 18.2339 27.1919 14.9988 27.1875C11.6537 27.1875 8.47875 26.4575 5.625 25.1475Z" stroke="white" stroke-width="2" stroke-linecap="round" stroke-linejoin="round"></path>
</svg>