<svg xmlns="http://www.w3.org/2000/svg" width="24" height="24" viewBox="0 0 24 24" fill="none">
    <g clip-path="url(#clip0_221_8432)">
        <path d="M23.363 8.29275L15.9847 7.20163L12.6776 0.381938C12.4306 -0.127313 11.5676 -0.127313 11.3205 0.381938L8.01442 7.20163L0.636143 8.29275C0.499914 8.31301 0.372087 8.36922 0.266695 8.4552C0.161303 8.54119 0.0824228 8.65363 0.0387143 8.78017C-0.00499415 8.90672 -0.0118403 9.04248 0.0189276 9.17254C0.0496955 9.30261 0.116888 9.42195 0.213126 9.51746L5.57333 14.8365L4.30628 22.3562C4.28366 22.4907 4.30057 22.6286 4.3551 22.7542C4.40963 22.8798 4.49956 22.9881 4.61462 23.0665C4.72968 23.145 4.86522 23.1905 5.00575 23.198C5.14629 23.2054 5.28614 23.1744 5.40932 23.1084L11.9996 19.5824L18.5898 23.1094C18.713 23.1753 18.8529 23.2063 18.9934 23.1989C19.1339 23.1915 19.2695 23.146 19.3845 23.0675C19.4996 22.989 19.5895 22.8808 19.6441 22.7552C19.6986 22.6296 19.7155 22.4916 19.6929 22.3572L18.4258 14.8375L23.786 9.51843C23.8825 9.42295 23.95 9.30353 23.9809 9.17332C24.0118 9.04312 24.0051 8.90718 23.9613 8.78046C23.9176 8.65375 23.8386 8.54117 23.733 8.45512C23.6275 8.36907 23.4994 8.31288 23.363 8.29275Z" fill="#FFC107"/>
    </g>
    <defs>
        <clipPath id="clip0_221_8432">
        <rect width="24" height="24" fill="white"/>
        </clipPath>
    </defs>
</svg>