<svg width="50" height="50" viewBox="0 0 50 50" fill="none" xmlns="http://www.w3.org/2000/svg">
<g clip-path="url(#clip0_895_8758)">
<path d="M49.2119 38.4312L30.4447 5.64859C29.3321 3.70748 27.2498 2.5 25.0137 2.5C22.7777 2.5 20.6958 3.70495 19.5827 5.64606L0.792532 38.4308C0.27442 39.3336 0.00012207 40.3591 0.00012207 41.4001C0.00012207 44.695 2.67958 47.3745 5.97202 47.3745H44.0282C47.3207 47.3745 50.0001 44.695 50.0001 41.4001C50.0001 40.3643 49.7284 39.3383 49.2103 38.4335L49.2119 38.4312ZM23.0788 19.808C23.0788 18.7464 23.9403 17.8849 25.0019 17.8849C26.0634 17.8849 26.925 18.7464 26.925 19.808V28.0133C26.925 29.0749 26.0634 29.9364 25.0019 29.9364C23.9403 29.9364 23.0788 29.0749 23.0788 28.0133V19.808ZM25.0019 37.7564C23.8712 37.7564 22.9504 36.8361 22.9504 35.705C22.9504 34.5743 23.8682 33.6535 25.0019 33.6535C26.1351 33.6535 27.0533 34.5739 27.0533 35.705C27.0533 36.8357 26.1355 37.7564 25.0019 37.7564Z" fill="#418985"/>
</g>
<defs>
<clipPath id="clip0_895_8758">
<rect width="50" height="50" fill="white"/>
</clipPath>
</defs>
</svg>
