<svg width="50" height="50" viewBox="0 0 50 50" fill="none" xmlns="http://www.w3.org/2000/svg">
<g clip-path="url(#clip0_895_8723)">
<path fill-rule="evenodd" clip-rule="evenodd" d="M30.3704 21.4899L31.6736 19.5288L36.9464 22.4476L35.8501 24.5822L30.3704 21.4899Z" fill="#418985"/>
<path fill-rule="evenodd" clip-rule="evenodd" d="M32.6259 18.07L43.2431 0.97665C44.0325 -0.576457 46.7 -0.321515 46.0093 2.06043L37.8094 21.0995L36.3679 20.3199L40.2747 12.4167L39.4119 11.9897L35.5195 19.8622L32.5236 18.2476C32.5598 18.183 32.5928 18.1254 32.6259 18.07Z" fill="#418985"/>
<path fill-rule="evenodd" clip-rule="evenodd" d="M32.6969 24.2965C37.7069 27.2781 33.9732 33.1807 29.7437 35.1339C31.4703 33.2621 32.4717 31.0677 32.9517 28.6391C32.9517 28.6391 31.2553 31.8839 28.8292 33.9222C26.289 36.0581 19.6925 36.2218 18.5305 32.1997C19.8357 33.4822 21.4064 33.4114 22.7628 32.7393C26.7491 30.7629 24.9462 27.8502 26.898 25.0808C28.4096 22.9374 30.6716 23.0941 32.6969 24.2965Z" fill="#418985"/>
<path fill-rule="evenodd" clip-rule="evenodd" d="M20.2348 40.6398C19.7669 40.1751 19.1231 39.8867 18.4111 39.8867C17.699 39.8867 17.0542 40.1746 16.5881 40.6398C16.1202 41.1077 15.8318 41.7529 15.8318 42.465C15.8318 43.1752 16.1197 43.8214 16.5881 44.2879C17.0542 44.7554 17.6998 45.0433 18.4111 45.0433C19.1227 45.0433 19.7675 44.7554 20.2348 44.2879C20.7004 43.8209 20.9884 43.1748 20.9884 42.465C20.9884 41.7528 20.7 41.1081 20.2348 40.6398ZM13.4238 33.5589C12.9563 33.0928 12.3121 32.8026 11.6009 32.8026C10.8887 32.8026 10.2432 33.0928 9.77712 33.5589C9.30965 34.025 9.02172 34.672 9.02172 35.3819C9.02172 36.0935 9.30965 36.7387 9.77712 37.2061C10.2432 37.6708 10.8888 37.961 11.6009 37.961C12.3126 37.961 12.9573 37.6708 13.4238 37.2061C13.8908 36.7386 14.1778 36.093 14.1778 35.3819C14.1778 34.6721 13.8899 34.025 13.4238 33.5589ZM14.308 23.7519C13.841 23.284 13.1973 22.998 12.4856 22.998C11.7721 22.998 11.1279 23.2845 10.6627 23.7519C10.1952 24.219 9.90727 24.8636 9.90727 25.5739C9.90727 26.2875 10.1961 26.9321 10.6627 27.3982C11.1287 27.8661 11.7729 28.1531 12.4856 28.1531C13.1977 28.1531 13.842 27.8666 14.308 27.3982C14.7755 26.9321 15.0644 26.2874 15.0644 25.5739C15.0644 24.8632 14.7755 24.218 14.308 23.7519ZM21.3916 18.0995C20.9242 17.6316 20.2795 17.3455 19.5674 17.3455C18.8566 17.3455 18.2105 17.6321 17.7445 18.0995C17.2784 18.5665 16.9891 19.2112 16.9891 19.9225C16.9891 20.6341 17.2784 21.2784 17.7445 21.7454C18.2115 22.2124 18.8566 22.5017 19.5674 22.5017C20.2795 22.5017 20.9243 22.2124 21.3916 21.7454C21.8572 21.2775 22.1465 20.6337 22.1465 19.9225C22.1465 19.2108 21.8577 18.5656 21.3916 18.0995ZM30.9935 41.1872C30.5289 40.7211 29.8828 40.4294 29.1716 40.4294C28.458 40.4294 27.8147 40.7206 27.3473 41.1872C26.8827 41.6532 26.5933 42.2988 26.5933 43.0091C26.5933 43.7227 26.8827 44.3673 27.3473 44.8334C27.8148 45.2981 28.4581 45.5883 29.1716 45.5883C29.8823 45.5883 30.5284 45.2981 30.9935 44.8334C31.4615 44.3673 31.7513 43.7226 31.7513 43.0091C31.7508 42.2989 31.4615 41.6532 30.9935 41.1872ZM40.0536 35.5343C39.5856 35.0668 38.9419 34.7789 38.2306 34.7789C37.5171 34.7789 36.8724 35.0668 36.4077 35.5343C35.9398 36.0013 35.6514 36.646 35.6514 37.3563C35.6514 38.0698 35.9393 38.7131 36.4077 39.1805C36.8724 39.6475 37.5175 39.9354 38.2306 39.9354C38.9423 39.9354 39.5856 39.6475 40.0536 39.1805C40.5196 38.713 40.8075 38.0697 40.8075 37.3563C40.8075 36.646 40.5196 36.0013 40.0536 35.5343ZM27.466 20.8558C27.7354 13.0261 19.5656 11.426 12.6554 15.6435C2.82556 21.6824 1.86272 32.3272 6.42808 39.9969C11.3678 48.295 21.9627 51.7329 31.0863 49.1652C37.2363 47.4308 42.7484 43.1719 44.6264 36.2789C45.9995 28.5459 41.243 26.8086 37.0995 28.2022C36.7748 35.7905 25.5743 40.6075 19.8478 36.6988C18.1705 35.555 16.1457 33.1144 16.8402 29.8473C20.866 32.346 22.5429 31.1716 23.4228 28.8445C24.3885 26.2839 24.4713 22.3521 27.4658 20.8552L27.466 20.8558Z" fill="#418985"/>
</g>
<defs>
<clipPath id="clip0_895_8723">
<rect width="50" height="50" fill="white"/>
</clipPath>
</defs>
</svg>
