<svg width="50" height="50" viewBox="0 0 50 50" fill="none" xmlns="http://www.w3.org/2000/svg">
<path d="M43.8225 1.50006H6.17764C2.77397 1.50006 0 4.27478 0 7.67704V32.726C0 36.1281 2.77407 38.9029 6.17764 38.9029H8.82248C9.56481 38.9029 10.1614 39.4988 10.1614 40.2418V44.1613C10.1614 45.8545 11.113 47.3377 12.6289 48.065C13.2255 48.3381 13.8547 48.4666 14.4836 48.4666C15.4517 48.4666 16.4033 48.1435 17.2099 47.4834L26.9844 39.436C27.0325 39.386 27.0809 39.3387 27.1452 39.2891C27.4036 39.0475 27.726 38.9033 28.0968 38.9033H43.8224C47.226 38.9033 50 36.1282 50 32.7259V7.67698C50 4.27482 47.2259 1.5 43.8224 1.5L43.8225 1.50006Z" fill="#418985"/>
</svg>
