<svg width="50" height="50" viewBox="0 0 50 50" fill="none" xmlns="http://www.w3.org/2000/svg">
<g clip-path="url(#clip0_895_8713)">
<path d="M3.6874 36.6876H3.56227H3.43715C3.37481 36.6876 3.37481 36.6253 3.37481 36.6253C3.31247 36.6253 3.31247 36.5629 3.24969 36.5629L3.18734 36.5006C3.18734 36.4382 3.125 36.4382 3.125 36.4382V36.3131V36.188V10.6255H0V42.0005H23.75C18.1875 36.8753 8.9375 36.7506 4.375 36.6878L3.6874 36.6876Z" fill="#418985"/>
<path d="M46.8124 36.1254V36.2505V36.3757C46.8124 36.438 46.7501 36.438 46.7501 36.438C46.7501 36.5004 46.6877 36.5004 46.6877 36.5004C46.6254 36.5627 46.6254 36.5627 46.5626 36.5627L46.5003 36.625H46.3752H46.25H45.5625C41.0625 36.7506 31.8125 36.8753 26.25 42.0005H50V10.6255H46.8126L46.8124 36.1254Z" fill="#418985"/>
<path d="M45.7495 35.625V8C40.8745 8.06234 30.9995 8.31259 25.562 15.125L25.5615 41.25C31.3738 35.8126 40.9365 35.6875 45.624 35.6252L45.7495 35.625Z" fill="#418985"/>
<path d="M4.24988 8.00022V35.6252H4.375C9.0625 35.6876 18.625 35.8127 24.4375 41.25V15.125C19.0625 8.31261 9.125 8.06239 4.25 8L4.24988 8.00022Z" fill="#418985"/>
</g>
<defs>
<clipPath id="clip0_895_8713">
<rect width="50" height="50" fill="white"/>
</clipPath>
</defs>
</svg>
