<svg width="50" height="50" viewBox="0 0 50 50" fill="none" xmlns="http://www.w3.org/2000/svg">
<path d="M6.58544 0H43.4275V20.1754H20.6205V16.6667C20.6205 16.4341 20.5281 16.2108 20.3636 16.0464C20.1992 15.8819 19.9759 15.7895 19.7433 15.7895H12.7258C12.4932 15.7895 12.27 15.8819 12.1055 16.0464C11.941 16.2108 11.8486 16.4341 11.8486 16.6667V20.1754H6.58544V0ZM18.8661 20.1754H13.603V17.5439H18.8661V20.1754ZM46.0591 23.6842H3.95386V21.9298H46.0591V23.6842Z" fill="#418985"/>
<path d="M11.0601 42.1055L11.8495 50.0002H13.6039L14.3934 42.1055H11.0601Z" fill="#418985"/>
<path d="M35.6218 42.1055L36.4113 50.0002H38.1657L38.9552 42.1055H35.6218Z" fill="#418985"/>
<path d="M3.07715 34.2104V49.9999H4.83153L6.49349 34.2104H3.07715Z" fill="#418985"/>
<path d="M43.5203 34.2104L45.1822 49.9999H46.9366V34.2104H43.5203Z" fill="#418985"/>
<path d="M22.3259 30.7017L22.8522 32.456H27.1607L27.687 30.7017H22.3259Z" fill="#418985"/>
<path d="M12.5017 28.9473L10.0945 36.9704V39.4736C10.0949 39.958 10.4873 40.3504 10.9717 40.3508H21.498C21.9824 40.3504 22.3748 39.958 22.3752 39.4736V36.9704L19.968 28.9473H12.5017ZM17.9892 32.456H14.4804V30.7017H17.9892V32.456Z" fill="#418985"/>
<path d="M2.19995 30.7017V32.456H9.6173L10.1436 30.7017H2.19995Z" fill="#418985"/>
<path d="M30.0456 28.9473L27.6384 36.9704V39.4736C27.6388 39.958 28.0312 40.3504 28.5156 40.3508H39.0419C39.5263 40.3504 39.9187 39.958 39.9191 39.4736V36.9704L37.5119 28.9473H30.0456ZM35.5332 32.456H32.0244V30.7017H35.5332V32.456Z" fill="#418985"/>
<path d="M39.8699 30.7017L40.3962 32.456H47.8135V30.7017H39.8699Z" fill="#418985"/>
<path d="M18.0776 42.1055L18.8671 50.0002H20.6215L21.411 42.1055H18.0776Z" fill="#418985"/>
<path d="M28.604 42.1055L29.3935 50.0002H31.1479L31.9373 42.1055H28.604Z" fill="#418985"/>
</svg>
