<svg width="50" height="50" viewBox="0 0 50 50" fill="none" xmlns="http://www.w3.org/2000/svg">
<path d="M26.4722 3.22217C25.5715 2.65902 24.4285 2.65902 23.5278 3.22217L1.30534 17.1101C0.493412 17.6179 0 18.508 0 19.4659C0 20.4234 0.493388 21.3135 1.30534 21.8213L23.5278 35.7104C24.4285 36.2736 25.5715 36.2736 26.4722 35.7104L48.6947 21.8213C49.5066 21.3135 50 20.4234 50 19.4659C50 18.508 49.5066 17.618 48.6947 17.1101L26.4722 3.22217Z" fill="#418985"/>
<path d="M0.422485 29.1046C1.23535 27.8039 2.94948 27.4082 4.25006 28.2215L24.9999 41.1893L45.7496 28.2215C47.0504 27.4082 48.7644 27.804 49.5772 29.1046C50.3901 30.4053 49.9948 32.1194 48.6941 32.9322L26.4717 46.8214C25.571 47.3845 24.428 47.3845 23.5273 46.8214L1.30605 32.9322C0.00486948 32.1194 -0.390376 30.4052 0.422485 29.1046Z" fill="#418985"/>
</svg>
