<svg width="19" height="18" viewBox="0 0 19 18" fill="none" xmlns="http://www.w3.org/2000/svg">
<g clip-path="url(#clip0_221_13397)">
<path d="M4.06915 7.52441H1.09359C0.815768 7.52441 0.597656 7.74252 0.597656 8.02035V15.9554C0.597656 16.2332 0.815758 16.4513 1.09359 16.4513H4.06915C4.34698 16.4513 4.56483 16.2332 4.56483 15.9554L4.56496 8.02068C4.56521 7.74272 4.34711 7.52461 4.06915 7.52461L4.06915 7.52441Z" fill="white"/>
<path d="M18.4158 8.46389C18.4158 7.65582 17.8609 6.83788 16.8012 6.83788H11.9967C12.683 5.61006 12.8849 3.88313 12.4077 2.61979C12.0573 1.69048 11.3874 1.14809 10.5207 1.09297L10.5067 1.09182C9.94261 1.05724 9.45447 1.47979 9.40749 2.04283C9.28396 3.29603 8.73481 5.51276 7.94791 6.29979C7.28532 6.96238 6.71816 7.23995 5.77787 7.69965C5.64183 7.76627 5.49315 7.83889 5.33594 7.91725C5.33875 7.95132 5.34053 7.98527 5.34053 8.02011V15.8741C5.45399 15.913 5.56603 15.9515 5.67616 15.9893C7.22787 16.5242 8.5689 16.9859 10.6185 16.9859H14.5027C15.5627 16.9859 16.1174 16.1677 16.1174 15.3599C16.1174 15.1201 16.0688 14.8797 15.9724 14.6595C16.3254 14.5961 16.6345 14.4262 16.8634 14.1664C17.1233 13.8711 17.2664 13.4786 17.2664 13.0612C17.2664 12.8222 17.2178 12.5819 17.1219 12.3622C17.9728 12.2153 18.4159 11.4849 18.4159 10.7628C18.4159 10.3439 18.2667 9.92225 17.9756 9.61355C18.2662 9.30459 18.4156 8.88294 18.4156 8.46407L18.4158 8.46389Z" fill="white"/>
</g>
<defs>
<clipPath id="clip0_221_13397">
<rect width="17.8191" height="17.8191" fill="white" transform="translate(0.599609 0.12793)"/>
</clipPath>
</defs>
</svg>
