<svg width="19" height="18" viewBox="0 0 19 18" fill="none" xmlns="http://www.w3.org/2000/svg">
<g clip-path="url(#clip0_221_13419)">
<path d="M18.3055 17.9481V11.4218C18.3055 8.21435 17.615 5.76421 13.873 5.76421C12.0688 5.76421 10.866 6.74427 10.376 7.67977H10.3314V6.05377H6.78985V17.9481H10.4873V12.0455C10.4873 10.4863 10.7769 8.99393 12.6924 8.99393C14.5857 8.99393 14.608 10.7536 14.608 12.1346V17.9258H18.3055V17.9481ZM0.775889 6.05377H4.47336V17.9481H0.775889V6.05377ZM2.62463 0.128906C1.44411 0.128906 0.486328 1.08669 0.486328 2.2672C0.486328 3.44772 1.44411 4.42778 2.62463 4.42778C3.80514 4.42778 4.76292 3.44772 4.76292 2.2672C4.76292 1.08669 3.80514 0.128906 2.62463 0.128906Z" fill="white"/>
</g>
<defs>
<clipPath id="clip0_221_13419">
<rect width="17.8191" height="17.8191" fill="white" transform="translate(0.486328 0.12793)"/>
</clipPath>
</defs>
</svg>
