<svg width="19" height="18" viewBox="0 0 19 18" fill="none" xmlns="http://www.w3.org/2000/svg">
<g clip-path="url(#clip0_221_13409)">
<path d="M10.0318 0.12793C5.14804 0.12793 2.55078 3.25756 2.55078 6.67008C2.55078 8.25271 3.4351 10.2263 4.85067 10.8522C5.06562 10.9491 5.18256 10.9079 5.23046 10.7085C5.27278 10.5571 5.45877 9.82755 5.54899 9.4834C5.57683 9.37314 5.56235 9.27736 5.47325 9.17378C5.00325 8.63027 4.63015 7.64015 4.63015 6.71129C4.63015 4.33121 6.5224 2.02019 9.74224 2.02019C12.5266 2.02019 14.4746 3.82891 14.4746 6.41614C14.4746 9.33973 12.9276 11.3623 10.9172 11.3623C9.80461 11.3623 8.97599 10.4891 9.23883 9.40878C9.55625 8.1224 10.1788 6.73913 10.1788 5.81138C10.1788 4.97941 9.70883 4.29111 8.74878 4.29111C7.6161 4.29111 6.69726 5.41266 6.69726 6.91844C6.69726 7.87515 7.03584 8.52112 7.03584 8.52112C7.03584 8.52112 5.91541 13.0474 5.70714 13.8927C5.3552 15.3239 5.75503 17.6416 5.78956 17.841C5.81072 17.9512 5.93434 17.9857 6.0034 17.8955C6.11366 17.7507 7.46797 15.8184 7.84776 14.4218C7.98587 13.9128 8.55276 11.849 8.55276 11.849C8.92587 12.5228 10.0029 13.0875 11.15 13.0875C14.5625 13.0875 17.0284 10.0882 17.0284 6.36602C17.0161 2.79758 13.9622 0.12793 10.0318 0.12793Z" fill="white"/>
</g>
<defs>
<clipPath id="clip0_221_13409">
<rect width="17.8191" height="17.8191" fill="white" transform="translate(0.880859 0.12793)"/>
</clipPath>
</defs>
</svg>
