<svg width="16" height="16" viewBox="0 0 16 16" fill="none" xmlns="http://www.w3.org/2000/svg">
<path fill-rule="evenodd" clip-rule="evenodd" d="M13.6261 0.265321L10.3263 0.736729C9.82218 0.808749 9.41029 1.04904 9.11617 1.38114L1.41674 9.08057C0.635695 9.86162 0.635663 11.1279 1.41674 11.909L4.24517 14.7374C5.02625 15.5185 6.29255 15.5185 7.0736 14.7374L14.773 7.03799C15.1051 6.74388 15.3454 6.33199 15.4174 5.82786L15.8888 2.52803C16.0775 1.20815 14.946 0.0767079 13.6261 0.265321ZM11.3162 4.83793C11.7067 5.22843 12.3399 5.22846 12.7305 4.83793C13.121 4.4474 13.1209 3.81421 12.7305 3.42371C12.34 3.03322 11.7068 3.03319 11.3162 3.42372C10.9257 3.81424 10.9257 4.44743 11.3162 4.83793Z" fill="white"/>
</svg>
