<svg width="24" height="23" viewBox="0 0 24 23" fill="none" xmlns="http://www.w3.org/2000/svg">
<g clip-path="url(#clip0_221_11312)">
<path d="M20.4543 9.71323C22.1074 9.71323 23.4476 8.37307 23.4476 6.7199C23.4476 5.06672 22.1074 3.72656 20.4543 3.72656C18.8011 3.72656 17.4609 5.06672 17.4609 6.7199C17.4609 8.37307 18.8011 9.71323 20.4543 9.71323Z" fill="white"/>
<path d="M10.773 6.71973H1.8304C1.31124 6.71973 1.18038 6.86004 1.30194 7.21082C1.37209 7.41661 1.69481 7.58966 1.88657 7.68788C2.40105 7.95915 9.54759 11.8552 9.81423 11.9955C10.0808 12.1358 10.3521 12.2013 10.773 12.2013C11.194 12.2013 11.4652 12.1358 11.7318 11.9955C11.9091 11.9022 15.1286 10.1482 17.4172 8.9036C16.9746 8.28893 16.7129 7.53508 16.7129 6.71973H10.773Z" fill="white"/>
<path d="M13.9629 12.0192L17.8075 16.3455C17.901 16.4391 17.943 16.5513 17.8916 16.6075C17.8355 16.6589 17.7139 16.6309 17.6157 16.542L13.0041 12.6507C12.3072 13.0997 11.8161 13.4084 11.732 13.4551C11.3718 13.6376 11.1193 13.6609 10.7732 13.6609C10.427 13.6609 10.1744 13.6376 9.81435 13.4551C9.72548 13.4084 9.23902 13.0997 8.54214 12.6507L3.93053 16.542C3.83699 16.6356 3.71076 16.6636 3.65458 16.6075C3.59851 16.556 3.6406 16.4391 3.73414 16.3455L7.57403 12.0192C5.29629 10.546 1.81654 8.09516 1.43297 7.89872C1.02143 7.68826 0.998047 7.93614 0.998047 8.1279C0.998047 8.31971 0.998047 17.7159 0.998047 17.7159C0.998047 18.1509 1.63876 18.6934 2.09716 18.6934H10.7732H19.4491C19.9074 18.6934 20.4547 18.1462 20.4547 17.7159C20.4547 17.7159 20.4547 13.3008 20.4547 10.4618C19.4386 10.4618 18.5177 10.0561 17.8434 9.39871C16.6273 10.236 15.1397 11.258 13.9629 12.0192Z" fill="white"/>
</g>
<defs>
<clipPath id="clip0_221_11312">
<rect width="22.45" height="22.45" fill="white" transform="translate(0.998047)"/>
</clipPath>
</defs>
</svg>
